<svg version="1.1" xmlns="http://www.w3.org/2000/svg" style="display: block;" viewBox="0 0 2048 2048" width="512" height="512" preserveAspectRatio="none">
<defs>
	<linearGradient id="Gradient1" gradientUnits="userSpaceOnUse" x1="669.854" y1="924.882" x2="649.854" y2="487.667">
		<stop class="stop0" offset="0" stop-opacity="1" stop-color="rgb(142,212,249)"/>
		<stop class="stop1" offset="1" stop-opacity="1" stop-color="rgb(217,238,245)"/>
	</linearGradient>
</defs>
<path transform="translate(0,0)" fill="rgb(39,136,236)" d="M 1254.45 794.396 C 1260.28 804.455 1274.89 828.446 1277.71 838.05 L 1279.01 839.411 C 1312.4 873.742 1316.67 874.955 1335.28 924.918 C 1337.73 933.465 1339.85 941.889 1342.03 950.5 C 1341.55 988.303 1341.74 1005.49 1335.28 1043.69 C 1333.69 1051.65 1334.35 1058.31 1335.28 1066.38 L 1330.17 1068.92 C 1340.47 1069.59 1350.86 1070.2 1361.13 1071 L 1361.13 1156.08 C 1361.02 1163.85 1360.66 1172.92 1361.13 1180.57 C 1361.12 1206.57 1360.79 1233.24 1361.13 1259.18 C 1361.39 1268.95 1361.51 1277.15 1361.13 1286.97 C 1361.91 1299.74 1361.45 1305.98 1361.13 1318.35 L 1361.13 1321.92 C 1367.26 1418.93 1324.23 1474.66 1258.63 1534.68 C 1249.2 1541.21 1232.98 1554.06 1224.85 1562.19 C 1182.56 1585.65 1063.52 1691.21 1026.02 1696.32 C 989.572 1693.93 876.651 1587.87 830.255 1558.42 C 810.524 1541.15 790.872 1524.05 774.222 1503.71 C 729.89 1456.33 693.32 1390.37 689.903 1324.67 L 689.903 1286.97 L 489.905 1286.97 C 468.331 1298.7 442.24 1339.32 425.9 1348.12 C 421.724 1341.05 415.894 1335.09 408.909 1330.77 C 421.17 1313.36 461.011 1275.25 478.179 1259.18 C 494.36 1258.61 513.585 1259.15 529.999 1259.18 C 527.81 1235.61 529.518 1204.41 529.999 1180.57 C 483.87 1175.55 415.04 1180.86 365.876 1180.28 C 367.845 1172.13 367.763 1163.62 365.636 1155.51 C 382.934 1154.6 401.803 1155.81 419.449 1155.89 L 529.999 1156.08 L 529.999 1068.92 L 449.643 1068.92 C 420.322 1043.09 388.508 1009.58 359.853 982.045 C 365.4 975.959 369.404 968.629 371.527 960.673 C 381.304 963.828 446.346 1032.35 460.726 1043.69 C 483.715 1043.71 507.037 1043.92 529.999 1043.69 L 529.999 950.5 L 708.022 950.5 C 710.314 941.789 712.805 933.521 715.416 924.918 C 721.159 894.439 749.674 847.435 780.804 838.05 C 787.609 831.58 801.884 812.392 806.252 804.422 C 967.256 896.876 1091.99 889.667 1254.45 794.396 z"/>
<path transform="translate(0,0)" fill="rgb(181,182,177)" d="M 1254.45 794.396 C 1260.28 804.455 1274.89 828.446 1277.71 838.05 L 1279.01 839.411 C 1312.4 873.742 1316.67 874.955 1335.28 924.918 C 1337.73 933.465 1339.85 941.889 1342.03 950.5 C 1341.55 988.303 1341.74 1005.49 1335.28 1043.69 C 1333.69 1051.65 1334.35 1058.31 1335.28 1066.38 L 1330.17 1068.92 L 1315.82 1066.38 C 1313.92 1064.98 1310.59 1063.52 1308.37 1062.41 C 1255.68 1053.61 1187.81 1024.97 1141.85 999.745 C 1137.49 997.925 1133.07 996.178 1128.68 994.415 C 1109.95 982.043 1089.86 972.221 1071.15 959.526 C 1055.16 948.669 1039.97 934.506 1023.43 924.918 C 998.152 934.579 949.396 978.155 915 994.415 L 905.898 999.745 C 902.579 993.257 897.623 973.344 893.067 963.175 C 865.98 902.729 842.076 882.749 794.433 844.152 C 791.212 842.23 785.607 840.693 780.804 838.05 C 787.609 831.58 801.884 812.392 806.252 804.422 C 967.256 896.876 1091.99 889.667 1254.45 794.396 z"/>
<path transform="translate(0,0)" fill="rgb(228,229,227)" d="M 1249.29 849.316 C 1259.14 843.033 1265.74 839.304 1277.71 838.05 L 1279.01 839.411 C 1312.4 873.742 1316.67 874.955 1335.28 924.918 C 1337.73 933.465 1339.85 941.889 1342.03 950.5 C 1341.55 988.303 1341.74 1005.49 1335.28 1043.69 C 1333.69 1051.65 1334.35 1058.31 1335.28 1066.38 L 1330.17 1068.92 L 1315.82 1066.38 C 1313.92 1064.98 1310.59 1063.52 1308.37 1062.41 C 1255.68 1053.61 1187.81 1024.97 1141.85 999.745 C 1162.33 946.52 1191.24 872.131 1249.29 849.316 z"/>
<path transform="translate(0,0)" fill="rgb(248,251,251)" d="M 1249.29 849.316 C 1259.14 843.033 1265.74 839.304 1277.71 838.05 L 1279.01 839.411 C 1312.4 873.742 1316.67 874.955 1335.28 924.918 C 1337.73 933.465 1339.85 941.889 1342.03 950.5 C 1341.55 988.303 1341.74 1005.49 1335.28 1043.69 C 1333.69 1051.65 1334.35 1058.31 1335.28 1066.38 L 1330.17 1068.92 L 1315.82 1066.38 C 1313.92 1064.98 1310.59 1063.52 1308.37 1062.41 C 1318.01 987.143 1331.12 890.338 1249.29 849.316 z"/>
<path transform="translate(0,0)" fill="rgb(228,229,227)" d="M 809.795 844.152 C 932.671 884.309 983.542 938.812 1129.71 886.11 C 1160.31 875.077 1210.04 851.068 1236.71 844.152 C 1178.38 876.13 1147.12 932.868 1128.68 994.415 C 1109.95 982.043 1089.86 972.221 1071.15 959.526 C 1055.16 948.669 1039.97 934.506 1023.43 924.918 C 998.152 934.579 949.396 978.155 915 994.415 C 907.783 936.064 856.845 875.351 809.795 844.152 z"/>
<path transform="translate(0,0)" fill="rgb(47,88,140)" d="M 1315.82 1066.38 L 1330.17 1068.92 C 1340.47 1069.59 1350.86 1070.2 1361.13 1071 L 1361.13 1156.08 C 1361.02 1163.85 1360.66 1172.92 1361.13 1180.57 C 1361.12 1206.57 1360.79 1233.24 1361.13 1259.18 C 1361.39 1268.95 1361.51 1277.15 1361.13 1286.97 C 1361.91 1299.74 1361.45 1305.98 1361.13 1318.35 L 1361.13 1321.92 C 1367.26 1418.93 1324.23 1474.66 1258.63 1534.68 C 1249.2 1541.21 1232.98 1554.06 1224.85 1562.19 C 1182.56 1585.65 1063.52 1691.21 1026.02 1696.32 C 1025.5 1685.62 1026.34 1672.69 1026.02 1661.29 C 1069.1 1640.01 1147.69 1573.5 1184.37 1542.6 C 1282.87 1459.61 1316.05 1427.75 1315.8 1301.84 L 1315.71 1097.99 C 1315.61 1087.56 1314.65 1076.73 1315.82 1066.38 z"/>
<path transform="translate(0,0)" fill="rgb(228,229,227)" d="M 780.804 838.05 C 785.607 840.693 791.212 842.23 794.433 844.152 C 842.076 882.749 865.98 902.729 893.067 963.175 C 897.623 973.344 902.579 993.257 905.898 999.745 C 849.207 1027.97 801.225 1043.08 745.634 1066.38 C 737.913 1070.28 738.955 1070.48 732.022 1066.38 C 728.046 1057.94 724.87 1051.77 720.213 1043.69 C 707.979 1009.19 706.277 986.766 708.022 950.5 C 710.314 941.789 712.805 933.521 715.416 924.918 C 721.159 894.439 749.674 847.435 780.804 838.05 z"/>
<path transform="translate(0,0)" fill="rgb(248,251,251)" d="M 780.804 838.05 C 785.607 840.693 791.212 842.23 794.433 844.152 C 787.051 856.33 775.079 865.432 766.722 877.376 C 735.549 921.933 724.313 964.825 735.402 1019.94 C 738.617 1035.93 745.173 1049.7 745.634 1066.38 C 737.913 1070.28 738.955 1070.48 732.022 1066.38 C 728.046 1057.94 724.87 1051.77 720.213 1043.69 C 707.979 1009.19 706.277 986.766 708.022 950.5 C 710.314 941.789 712.805 933.521 715.416 924.918 C 721.159 894.439 749.674 847.435 780.804 838.05 z"/>
<path transform="translate(0,0)" fill="rgb(157,215,247)" d="M 529.999 950.5 L 708.022 950.5 C 706.277 986.766 707.979 1009.19 720.213 1043.69 C 703.399 1042.64 675.225 1043.65 657.269 1043.66 L 529.999 1043.69 L 529.999 950.5 z"/>
<path transform="translate(0,0)" fill="rgb(157,215,247)" d="M 529.999 1068.92 C 592.302 1068.88 658.969 1072.72 720.213 1071 C 712.772 1075 698.645 1076.76 689.903 1078.13 L 689.903 1156.08 L 529.999 1156.08 L 529.999 1068.92 z"/>
<path transform="translate(0,0)" fill="rgb(251,184,66)" d="M 529.999 1180.57 C 556.863 1181.28 652.145 1184.64 676.534 1180.57 C 680.851 1180.61 685.628 1180.75 689.903 1180.57 L 689.903 1259.18 L 529.999 1259.18 C 527.81 1235.61 529.518 1204.41 529.999 1180.57 z"/>
<path transform="translate(0,0)" fill="rgb(47,88,140)" d="M 1026.02 994.415 C 1074.11 1051.43 1207.88 1092.77 1281.38 1123.1 L 1282.91 1123.74 C 1287.29 1129.02 1285.62 1197.22 1285.59 1207.85 L 1285.72 1209.09 C 1286.19 1214.04 1285.74 1228.01 1285.7 1233.59 L 1285.6 1280.1 C 1285.6 1452.46 1222.17 1464.66 1095.73 1566.75 C 1077.35 1581.59 1037.72 1605.75 1024.42 1622.07 L 1023.43 1623.29 C 1002.87 1612.02 976.435 1592.27 956.784 1578.46 C 885.209 1528.16 770.348 1443.73 758.817 1350.69 C 756.411 1331.28 757.502 1290.03 757.501 1269.15 L 757.541 1131.94 C 769.959 1124.53 786.799 1118.87 800.574 1113.69 C 881.581 1083.24 954.401 1042.34 1026.02 994.415 z"/>
<path transform="translate(0,0)" fill="rgb(37,61,106)" d="M 1282.91 1123.74 C 1287.29 1129.02 1285.62 1197.22 1285.59 1207.85 L 1284.26 1207.5 C 1283.25 1199.56 1281.69 1131.68 1282.91 1123.74 z"/>
<path transform="translate(0,0)" fill="rgb(241,130,43)" d="M 1026.02 1213.98 C 1035.66 1213.85 1052.02 1213.22 1061.01 1213.98 L 1074.25 1216.92 C 1076.43 1218.65 1076.75 1218.82 1079.24 1220.11 C 1094.21 1226.5 1104.46 1236.17 1114.57 1248.82 C 1126.72 1240.04 1144.29 1237.88 1139.39 1259.18 C 1148.84 1261.81 1148.62 1263.77 1152.43 1272.92 C 1170.47 1269.26 1176.85 1279.34 1176.58 1295.92 C 1184.1 1299.13 1190.75 1304.41 1196.06 1310.58 C 1187.15 1361.96 1180.4 1338.42 1158.04 1340.94 C 1150.94 1345.35 1150.35 1362.11 1153.68 1367.46 L 1156.24 1369.4 C 1150.5 1371.01 1147.04 1371.81 1141.85 1375.12 L 1128.68 1369.4 C 1128.38 1369.12 1125.59 1367.4 1125.05 1367.05 C 1101.88 1404.32 1068.38 1444.82 1026.02 1461.33 L 1023.43 1461.33 C 1023.47 1466.81 1023.67 1473.43 1023.43 1478.8 C 989.614 1461.88 949.67 1434.88 928.807 1403.09 C 931.598 1402.15 936.895 1399.29 939.747 1397.86 C 934.734 1390.84 925.859 1372.99 920.218 1369.4 C 916.985 1362.06 915.524 1356.89 915 1348.95 C 914.84 1345.48 914.989 1340.99 915 1337.42 C 898.87 1339.63 875.485 1340.54 882.958 1316.1 C 860.879 1304.27 870.712 1268.97 887.029 1266.12 C 905.505 1262.89 909.15 1299.44 925.1 1266.66 C 905.844 1249.45 916.498 1233.48 939.747 1244.2 C 942.683 1242.66 963.788 1223.57 967.744 1220.11 L 973.49 1220.11 C 977.27 1219.34 982.219 1217.9 986.058 1216.92 C 994.319 1215.09 1016.89 1214.44 1026.02 1213.98 z"/>
<path transform="translate(0,0)" fill="rgb(242,93,23)" d="M 1026.02 1213.98 C 1035.66 1213.85 1052.02 1213.22 1061.01 1213.98 L 1074.25 1216.92 C 1076.43 1218.65 1076.75 1218.82 1079.24 1220.11 C 1094.21 1226.5 1104.46 1236.17 1114.57 1248.82 C 1126.72 1240.04 1144.29 1237.88 1139.39 1259.18 C 1148.84 1261.81 1148.62 1263.77 1152.43 1272.92 C 1170.47 1269.26 1176.85 1279.34 1176.58 1295.92 C 1184.1 1299.13 1190.75 1304.41 1196.06 1310.58 C 1187.15 1361.96 1180.4 1338.42 1158.04 1340.94 C 1150.94 1345.35 1150.35 1362.11 1153.68 1367.46 L 1156.24 1369.4 C 1150.5 1371.01 1147.04 1371.81 1141.85 1375.12 L 1128.68 1369.4 C 1128.38 1369.12 1125.59 1367.4 1125.05 1367.05 C 1101.88 1404.32 1068.38 1444.82 1026.02 1461.33 C 1026.1 1450.21 1027.76 1401.01 1026.02 1393.4 C 1027.37 1393.21 1028.58 1393.35 1029.98 1393.4 C 1029.47 1378.5 1029 1368.14 1029.98 1353.36 L 1033.58 1348.95 C 1034.11 1343.93 1034.62 1329.18 1033.58 1324.67 L 1032.03 1323.67 C 1030.41 1320.35 1030.31 1314.49 1029.98 1310.58 C 1030.59 1303.16 1030.16 1294.51 1029.98 1286.97 L 1029.98 1286.97 C 1024.6 1260.43 1026.38 1240.99 1026.02 1213.98 z"/>
<path transform="translate(0,0)" fill="rgb(37,61,106)" d="M 1176.58 1295.92 C 1184.1 1299.13 1190.75 1304.41 1196.06 1310.58 C 1187.15 1361.96 1180.4 1338.42 1158.04 1340.94 C 1150.94 1345.35 1150.35 1362.11 1153.68 1367.46 L 1156.24 1369.4 C 1150.5 1371.01 1147.04 1371.81 1141.85 1375.12 L 1128.68 1369.4 C 1128.38 1369.12 1125.59 1367.4 1125.05 1367.05 C 1130.55 1344.57 1133.09 1336.56 1132.88 1313.31 L 1146.75 1313.31 C 1163.64 1319.58 1174.32 1313.94 1176.58 1295.92 z"/>
<path transform="translate(0,0)" fill="rgb(251,184,66)" d="M 1055.65 1318.35 C 1059.4 1315.63 1063.37 1316.16 1068.02 1316.1 C 1096.98 1336.19 1046.01 1379.58 1029.98 1393.4 C 1029.47 1378.5 1029 1368.14 1029.98 1353.36 L 1033.58 1348.95 C 1034.11 1343.93 1034.62 1329.18 1033.58 1324.67 C 1040.2 1320.76 1048.08 1319.82 1055.65 1318.35 z"/>
<path transform="translate(0,0)" fill="rgb(250,233,95)" d="M 1055.65 1318.35 C 1093.72 1339.5 1040.24 1347.04 1033.58 1348.95 C 1034.11 1343.93 1034.62 1329.18 1033.58 1324.67 C 1040.2 1320.76 1048.08 1319.82 1055.65 1318.35 z"/>
<path transform="translate(0,0)" fill="rgb(252,163,42)" d="M 1139.39 1259.18 C 1148.84 1261.81 1148.62 1263.77 1152.43 1272.92 C 1170.47 1269.26 1176.85 1279.34 1176.58 1295.92 C 1174.32 1313.94 1163.64 1319.58 1146.75 1313.31 C 1143.33 1307.64 1140.94 1306.16 1135.16 1303.03 C 1133.39 1295.26 1129.55 1285.37 1135.16 1279.03 C 1131.95 1274.85 1129 1271.87 1128.68 1266.66 C 1133.32 1264.27 1135.37 1262.41 1139.39 1259.18 z"/>
<path transform="translate(0,0)" fill="rgb(37,61,106)" d="M 1139.39 1259.18 C 1148.84 1261.81 1148.62 1263.77 1152.43 1272.92 C 1144.18 1277.16 1142.3 1281.12 1135.16 1279.03 C 1131.95 1274.85 1129 1271.87 1128.68 1266.66 C 1133.32 1264.27 1135.37 1262.41 1139.39 1259.18 z"/>
<path transform="translate(0,0)" fill="rgb(252,163,42)" d="M 1029.98 1286.97 C 1037.32 1293.13 1049.87 1308.15 1055.65 1316.1 C 1059.98 1315.87 1063.73 1315.45 1068.02 1316.1 C 1063.37 1316.16 1059.4 1315.63 1055.65 1318.35 C 1048.08 1319.82 1040.2 1320.76 1033.58 1324.67 L 1032.03 1323.67 C 1030.41 1320.35 1030.31 1314.49 1029.98 1310.58 C 1030.59 1303.16 1030.16 1294.51 1029.98 1286.97 z"/>
<path transform="translate(0,0)" fill="rgb(252,163,42)" d="M 1114.57 1248.82 C 1126.72 1240.04 1144.29 1237.88 1139.39 1259.18 C 1135.37 1262.41 1133.32 1264.27 1128.68 1266.66 C 1123.19 1260.34 1119.18 1255.74 1114.57 1248.82 z"/>
<path transform="translate(0,0)" fill="rgb(242,93,23)" d="M 915 1348.95 C 917.633 1344.81 912.925 1319.7 915.414 1313.5 C 917.193 1309.07 921.573 1308.11 924.14 1301.94 L 925.201 1302.12 C 924.27 1366.2 944.958 1408.84 1000.82 1445.92 C 1005.67 1449.14 1019.7 1457.97 1023.43 1461.33 C 1023.47 1466.81 1023.67 1473.43 1023.43 1478.8 C 989.614 1461.88 949.67 1434.88 928.807 1403.09 C 931.598 1402.15 936.895 1399.29 939.747 1397.86 C 934.734 1390.84 925.859 1372.99 920.218 1369.4 C 916.985 1362.06 915.524 1356.89 915 1348.95 z"/>
<path transform="translate(0,0)" fill="rgb(247,215,59)" d="M 1029.98 1286.97 L 1029.98 1286.97 C 1030.16 1294.51 1030.59 1303.16 1029.98 1310.58 C 1030.31 1314.49 1030.41 1320.35 1032.03 1323.67 L 1033.58 1324.67 C 1034.62 1329.18 1034.11 1343.93 1033.58 1348.95 L 1029.98 1353.36 C 1029 1368.14 1029.47 1378.5 1029.98 1393.4 C 1028.58 1393.35 1027.37 1393.21 1026.02 1393.4 C 1019.51 1392.79 1010.29 1386.2 1005.84 1381.51 C 1005.45 1364.12 1002.91 1365.45 1005.84 1345.74 C 1006.68 1342.4 1005.93 1323.08 1005.84 1318.35 C 1004.76 1314.27 1003.56 1311.2 1002.08 1307.27 C 1009.36 1294.69 1016.45 1290.54 1029.98 1286.97 z"/>
<path transform="translate(0,0)" fill="rgb(251,184,66)" d="M 1029.98 1353.36 C 1030.2 1339.14 1029.67 1324.87 1029.98 1310.58 C 1030.31 1314.49 1030.41 1320.35 1032.03 1323.67 L 1033.58 1324.67 C 1034.62 1329.18 1034.11 1343.93 1033.58 1348.95 L 1029.98 1353.36 z"/>
<path transform="translate(0,0)" fill="rgb(250,233,95)" d="M 982.452 1316.1 C 990.726 1313.89 995.944 1313.29 1002.08 1307.27 C 1003.56 1311.2 1004.76 1314.27 1005.84 1318.35 C 1005.93 1323.08 1006.68 1342.4 1005.84 1345.74 C 969.771 1346.69 981.904 1343.37 973.49 1316.1 L 982.452 1316.1 z"/>
<path transform="translate(0,0)" fill="rgb(251,184,66)" d="M 982.452 1316.1 C 990.726 1313.89 995.944 1313.29 1002.08 1307.27 C 1003.56 1311.2 1004.76 1314.27 1005.84 1318.35 C 997.022 1318.39 990.983 1317.94 982.452 1316.1 z"/>
<path transform="translate(0,0)" fill="rgb(251,184,66)" d="M 964.426 1331.9 C 966.65 1323.93 966.789 1320.55 973.49 1316.1 C 981.904 1343.37 969.771 1346.69 1005.84 1345.74 C 1002.91 1365.45 1005.45 1364.12 1005.84 1381.51 C 991.741 1369.5 970.904 1349.39 964.426 1331.9 z"/>
<path transform="translate(0,0)" fill="rgb(37,61,106)" d="M 915 1310.58 C 915.043 1322.38 913.562 1324.49 915 1337.42 C 898.87 1339.63 875.485 1340.54 882.958 1316.1 L 887.46 1316.1 C 892.366 1316.13 906.264 1311.63 915 1310.58 z"/>
<path transform="translate(0,0)" fill="rgb(242,93,23)" d="M 925.1 1266.66 C 905.844 1249.45 916.498 1233.48 939.747 1244.2 C 937.825 1249.66 929.576 1263.38 925.1 1266.66 z"/>
<path transform="translate(0,0)" fill="rgb(242,93,23)" d="M 887.46 1316.1 C 895.563 1308.77 906.929 1298.75 915 1310.58 C 906.264 1311.63 892.366 1316.13 887.46 1316.1 z"/>
<path transform="translate(0,0)" fill="rgb(37,61,106)" d="M 1125.05 1367.05 C 1125.59 1367.4 1128.38 1369.12 1128.68 1369.4 L 1141.85 1375.12 C 1147.04 1371.81 1150.5 1371.01 1156.24 1369.4 C 1171.87 1371.11 1175.31 1378.92 1176.58 1393.4 C 1178.19 1382.43 1204.07 1406.45 1185.74 1436.13 C 1174.31 1436.73 1163.69 1437.72 1152.43 1439.9 C 1147.9 1433.91 1145.52 1430.68 1141.85 1424.17 C 1131.37 1429.3 1117.68 1444.34 1108.01 1452.41 C 1080.88 1475.05 1058.47 1489.66 1026.02 1503.71 C 1016.7 1493.48 990.11 1478.04 976.969 1468.18 C 956.576 1452.87 946.684 1441.27 928.807 1424.17 C 919.659 1429.84 917.394 1433.09 909.424 1439.9 C 886.776 1439.59 877.449 1433.1 891.743 1411.73 C 898.994 1405.08 919.113 1400.29 928.807 1403.09 C 949.67 1434.88 989.614 1461.88 1023.43 1478.8 C 1023.67 1473.43 1023.47 1466.81 1023.43 1461.33 L 1026.02 1461.33 C 1068.38 1444.82 1101.88 1404.32 1125.05 1367.05 z"/>
<path transform="translate(0,0)" fill="rgb(235,59,0)" d="M 1125.05 1367.05 C 1125.59 1367.4 1128.38 1369.12 1128.68 1369.4 C 1125.08 1377.95 1126.3 1388.45 1125.05 1397.86 C 1096.43 1418.26 1073.95 1467.07 1023.43 1478.8 C 1023.67 1473.43 1023.47 1466.81 1023.43 1461.33 L 1026.02 1461.33 C 1068.38 1444.82 1101.88 1404.32 1125.05 1367.05 z"/>
<path transform="translate(0,0)" fill="rgb(252,163,42)" d="M 1156.24 1369.4 C 1171.87 1371.11 1175.31 1378.92 1176.58 1393.4 C 1172.11 1417.42 1147.56 1421.19 1135.16 1403.09 C 1132.26 1400.74 1128.51 1399.38 1125.05 1397.86 C 1126.3 1388.45 1125.08 1377.95 1128.68 1369.4 L 1141.85 1375.12 C 1147.04 1371.81 1150.5 1371.01 1156.24 1369.4 z"/>
<path transform="translate(0,0)" fill="rgb(241,130,43)" d="M 1128.68 1369.4 L 1141.85 1375.12 C 1139.44 1377.61 1137.82 1379.31 1135.16 1381.51 C 1137.41 1389.84 1138.47 1394.57 1135.16 1403.09 C 1132.26 1400.74 1128.51 1399.38 1125.05 1397.86 C 1126.3 1388.45 1125.08 1377.95 1128.68 1369.4 z"/>
<path transform="translate(0,0)" fill="rgb(47,88,140)" d="M 967.744 1199.51 C 962.454 1146.99 980.755 1131.27 1029.98 1131.94 C 1087.47 1134.56 1079.17 1177.81 1079.24 1220.11 C 1076.75 1218.82 1076.43 1218.65 1074.25 1216.92 L 1061.01 1213.98 C 1052.02 1213.22 1035.66 1213.85 1026.02 1213.98 C 1016.89 1214.44 994.319 1215.09 986.058 1216.92 C 982.219 1217.9 977.27 1219.34 973.49 1220.11 L 967.744 1220.11 C 967.635 1213.16 967.496 1206.46 967.744 1199.51 z"/>
<path transform="translate(0,0)" fill="rgb(37,61,106)" d="M 1029.98 1131.94 C 1087.47 1134.56 1079.17 1177.81 1079.24 1220.11 C 1076.75 1218.82 1076.43 1218.65 1074.25 1216.92 L 1061.01 1213.98 C 1052.02 1213.22 1035.66 1213.85 1026.02 1213.98 C 1025.13 1201.39 1025.2 1162.18 1026.02 1149.85 L 1029.98 1149.85 C 1029.33 1142.92 1029.6 1138.88 1029.98 1131.94 z"/>
<path transform="translate(0,0)" fill="rgb(228,229,227)" d="M 1029.98 1131.94 C 1087.47 1134.56 1079.17 1177.81 1079.24 1220.11 C 1076.75 1218.82 1076.43 1218.65 1074.25 1216.92 L 1061.01 1213.98 C 1061.18 1196.41 1063.54 1176.25 1055.65 1161.18 C 1048.28 1150.29 1041.99 1150 1029.98 1149.85 C 1029.33 1142.92 1029.6 1138.88 1029.98 1131.94 z"/>
<path transform="translate(0,0)" fill="rgb(228,229,227)" d="M 967.744 1199.51 C 962.454 1146.99 980.755 1131.27 1029.98 1131.94 C 1029.6 1138.88 1029.33 1142.92 1029.98 1149.85 L 1026.02 1149.85 C 977.928 1150.31 985.714 1179.44 986.058 1216.92 C 982.219 1217.9 977.27 1219.34 973.49 1220.11 L 967.744 1220.11 C 967.635 1213.16 967.496 1206.46 967.744 1199.51 z"/>
<path transform="translate(0,0)" fill="rgb(248,251,251)" d="M 967.744 1199.51 C 968.042 1195.71 968.11 1188.87 969.504 1185.73 L 971.003 1186.01 C 971.639 1194.6 971.462 1216.04 973.366 1217.78 L 973.49 1220.11 L 967.744 1220.11 C 967.635 1213.16 967.496 1206.46 967.744 1199.51 z"/>
<path transform="translate(0,0)" fill="rgb(241,130,43)" d="M 891.743 1411.73 C 866.608 1410.37 864.337 1380.81 878.627 1365.82 C 894.726 1348.92 908.247 1385.75 920.218 1369.4 C 925.859 1372.99 934.734 1390.84 939.747 1397.86 C 936.895 1399.29 931.598 1402.15 928.807 1403.09 C 919.113 1400.29 898.994 1405.08 891.743 1411.73 z"/>
<path transform="translate(0,0)" fill="rgb(29,217,87)" d="M 1135.16 372.151 C 1168.53 334.95 1192.02 315.107 1245.01 311.208 C 1347.34 303.678 1406.37 394.134 1402.99 488.316 C 1425.32 503.161 1523.04 447.144 1522.75 563.341 C 1522.69 591.723 1520.74 918.686 1523.93 924.918 C 1505.13 924.929 1338.94 923.553 1335.28 924.918 C 1316.67 874.955 1312.4 873.742 1279.01 839.411 L 1277.71 838.05 C 1274.89 828.446 1260.28 804.455 1254.45 794.396 C 1091.99 889.667 967.256 896.876 806.252 804.422 C 729.094 763.963 617.338 676.637 689.903 582.93 C 667.328 562.668 642.267 519.21 645.115 488.316 C 618.909 349.764 790.968 241.091 909.424 372.151 C 913.921 370.668 942.734 372.119 950.428 372.139 L 1073.02 372.168 C 1091.36 372.18 1117.84 373.218 1135.16 372.151 z M 783.865 430.383 C 780.307 389.04 712.583 407.726 745.634 443.722 C 763.288 454.545 775.324 446.89 783.865 430.383 z"/>
<path transform="translate(0,0)" fill="rgb(157,215,247)" d="M 1402.99 488.316 C 1425.32 503.161 1523.04 447.144 1522.75 563.341 C 1522.69 591.723 1520.74 918.686 1523.93 924.918 C 1505.13 924.929 1338.94 923.553 1335.28 924.918 C 1316.67 874.955 1312.4 873.742 1279.01 839.411 L 1277.71 838.05 C 1274.89 828.446 1260.28 804.455 1254.45 794.396 C 1324.44 751.901 1430.66 682.12 1361.13 592.91 C 1360.63 584.617 1360.73 579.46 1361.13 571.121 C 1386.92 537.486 1393.72 534.591 1402.99 488.316 z"/>
<path transform="translate(0,0)" fill="rgb(157,215,247)" d="M 909.424 372.151 C 913.921 370.668 942.734 372.119 950.428 372.139 L 1073.02 372.168 C 1091.36 372.18 1117.84 373.218 1135.16 372.151 C 1127.29 387.837 1115.07 421.663 1099.7 429.407 C 1087.48 435.566 964.486 437.217 942.077 428.777 C 927.68 423.355 915.63 386.275 909.424 372.151 z"/>
<path transform="translate(0,0)" fill="rgb(248,251,251)" d="M 715.416 550.191 C 710.094 541.171 700.294 531.94 694.571 521.953 C 626.134 402.528 805.432 283.613 882.958 419.295 C 905.098 457.569 895.358 491.273 878.572 529.255 C 884.839 523.371 879.856 523.806 884.108 522.57 L 884.579 523.412 C 884.257 523.983 883.935 524.554 883.613 525.125 C 864.957 622.65 721.919 609.777 715.416 550.191 z M 783.865 430.383 C 780.307 389.04 712.583 407.726 745.634 443.722 C 763.288 454.545 775.324 446.89 783.865 430.383 z"/>
<path transform="translate(0,0)" fill="rgb(228,229,227)" d="M 882.958 419.295 C 905.098 457.569 895.358 491.273 878.572 529.255 C 884.839 523.371 879.856 523.806 884.108 522.57 L 884.579 523.412 C 884.257 523.983 883.935 524.554 883.613 525.125 C 864.957 622.65 721.919 609.777 715.416 550.191 C 720.267 553.88 723.343 556.456 727.819 560.59 C 736.328 554.977 749.251 565.545 761.38 566.668 C 828.752 572.904 877.799 522.77 883.409 457.049 C 884.476 444.554 881.394 431.763 882.958 419.295 z"/>
<path transform="translate(0,0)" fill="rgb(11,184,78)" d="M 878.572 529.255 C 884.839 523.371 879.856 523.806 884.108 522.57 L 884.579 523.412 C 884.257 523.983 883.935 524.554 883.613 525.125 C 864.957 622.65 721.919 609.777 715.416 550.191 C 720.267 553.88 723.343 556.456 727.819 560.59 C 765.121 586.156 827.038 582.838 859.134 550.5 C 865.947 543.635 871.834 536.123 878.572 529.255 z"/>
<path transform="translate(0,0)" fill="rgb(241,130,43)" d="M 772.731 390.876 C 812.682 385.823 849.137 414.189 854.056 454.157 C 858.975 494.125 830.487 530.484 790.503 535.27 C 750.708 540.032 714.558 511.708 709.662 471.929 C 704.766 432.151 732.969 395.906 772.731 390.876 z M 783.865 430.383 C 780.307 389.04 712.583 407.726 745.634 443.722 C 763.288 454.545 775.324 446.89 783.865 430.383 z"/>
<path transform="translate(0,0)" fill="rgb(47,88,140)" d="M 783.865 430.383 C 800.774 434.981 816.731 435.434 825.074 454.205 C 840.187 499.206 784.974 530.369 752.046 500.306 C 735.274 485.538 727.638 460.715 745.634 443.722 C 763.288 454.545 775.324 446.89 783.865 430.383 z"/>
<path transform="translate(0,0)" fill="rgb(37,61,106)" d="M 825.074 454.205 C 840.187 499.206 784.974 530.369 752.046 500.306 C 764.792 475.894 801.742 463.353 825.074 454.205 z"/>
<path transform="translate(0,0)" fill="rgb(248,251,251)" d="M 1153.36 486.983 C 1146.76 447.775 1162.43 408.141 1194.06 384.047 C 1225.69 359.954 1268.06 355.37 1304.11 372.141 C 1340.16 388.912 1363.95 424.277 1365.89 463.988 C 1368.23 511.904 1338.42 555.53 1292.93 570.756 C 1271.21 578.023 1247.74 578.138 1225.96 571.084 C 1198.26 562.115 1175.41 542.252 1162.67 516.072 C 1158.19 506.87 1155.05 497.074 1153.36 486.983 z"/>
<path transform="translate(0,0)" fill="rgb(225,216,183)" d="M 1365.89 463.988 C 1368.23 511.904 1338.42 555.53 1292.93 570.756 C 1271.21 578.023 1247.74 578.138 1225.96 571.084 C 1198.26 562.115 1175.41 542.252 1162.67 516.072 C 1164.98 515.662 1173.26 513.695 1174.28 513.799 C 1192.37 540.119 1216.3 558.566 1249.29 560.59 C 1303.41 561.534 1356.78 516.617 1365.89 463.988 z"/>
<path transform="translate(0,0)" fill="rgb(228,229,227)" d="M 1225.96 571.084 C 1235.01 564.923 1283.02 567.013 1292.93 570.756 C 1271.21 578.023 1247.74 578.138 1225.96 571.084 z"/>
<path transform="translate(0,0)" fill="rgb(241,130,43)" d="M 1194 473.226 C 1191.16 449.703 1200.24 426.311 1218.22 410.874 C 1236.2 395.437 1260.69 389.993 1283.52 396.362 C 1292.46 398.857 1300.82 403.082 1308.14 408.799 C 1329.2 425.258 1339.22 452.157 1334.07 478.385 C 1328.92 504.613 1309.46 525.72 1283.74 532.988 C 1258.02 540.256 1230.39 532.453 1212.27 512.8 C 1202.18 501.853 1195.79 488.008 1194 473.226 z"/>
<path transform="translate(0,0)" fill="rgb(37,61,106)" d="M 1294.7 443.722 C 1337.25 480.967 1260.96 540.044 1228.19 491.788 C 1238.81 476.408 1278.32 466.784 1285.59 443.722 C 1288.61 443.993 1291.64 443.796 1294.7 443.722 z"/>
<path transform="translate(0,0)" fill="rgb(47,88,140)" d="M 1228.19 491.788 C 1207.36 458.16 1232.93 444.047 1258.63 430.383 C 1267.92 440.431 1271.11 446.219 1285.59 443.722 C 1278.32 466.784 1238.81 476.408 1228.19 491.788 z"/>
<path transform="translate(0,0)" fill="rgb(248,251,251)" d="M 1283.52 396.362 C 1292.46 398.857 1300.82 403.082 1308.14 408.799 C 1305.91 410.352 1305.6 410.462 1303.68 412.323 C 1308.53 426.557 1304.95 433.002 1294.7 443.722 C 1291.64 443.796 1288.61 443.993 1285.59 443.722 C 1271.11 446.219 1267.92 440.431 1258.63 430.383 C 1254.84 413.454 1268.63 404.197 1282.91 400.665 L 1282.07 400.845 L 1283.52 396.362 z"/>
<path transform="translate(0,0)" fill="rgb(248,148,89)" d="M 1283.52 396.362 C 1292.46 398.857 1300.82 403.082 1308.14 408.799 C 1305.91 410.352 1305.6 410.462 1303.68 412.323 C 1296.71 404.68 1292.78 402.568 1282.91 400.665 L 1282.07 400.845 L 1283.52 396.362 z"/>
<path transform="translate(0,0)" fill="rgb(41,82,85)" d="M 872.304 653.863 C 910.336 655.565 871.041 691.349 861.316 701.726 C 941.192 809.145 1168.07 774.793 1254.76 674.976 C 1260.87 668.672 1271.84 658.273 1280.19 667.682 C 1290.46 679.244 1257.1 706.315 1249.29 714.222 C 1147.55 800.777 916.196 830.329 841.715 714.222 C 830.811 717.484 792.212 733.324 794.324 708.668 C 795.409 696.002 824.167 692.806 834.083 688.183 C 850.596 680.865 859.169 665.06 872.304 653.863 z"/>
<path transform="translate(0,0)" fill="rgb(11,184,78)" d="M 1024.07 529.344 C 1038.51 526.839 1052.22 536.597 1054.59 551.063 C 1056.95 565.529 1047.06 579.145 1032.57 581.368 C 1018.28 583.562 1004.89 573.835 1002.56 559.567 C 1000.23 545.299 1009.82 531.815 1024.07 529.344 z"/>
<path transform="translate(0,0)" fill="rgb(11,184,78)" d="M 1005.84 432.918 C 1012.48 433.608 1019.38 433.318 1026.02 432.918 C 1039.3 448.428 1048.67 473.494 1023.43 484.35 C 987.603 492.011 973.516 460.854 1005.84 432.918 z"/>
<path transform="translate(0,0)" fill="rgb(78,241,127)" d="M 1121.41 582.93 C 1126.18 582.572 1130.39 582.789 1135.16 582.93 C 1158.71 596.735 1157.05 618.389 1135.16 632.967 C 1130.7 633.135 1125.89 633.003 1121.41 632.967 C 1097.43 619.466 1095.01 593.388 1121.41 582.93 z"/>
<path transform="translate(0,0)" fill="rgb(11,184,78)" d="M 946.855 500.451 C 955.787 499.664 964.451 503.748 969.528 511.139 C 974.604 518.53 975.308 528.082 971.368 536.137 C 967.429 544.192 959.457 549.501 950.506 550.031 C 936.939 550.834 925.242 540.594 924.244 527.04 C 923.246 513.486 933.317 501.643 946.855 500.451 z"/>
<path transform="translate(0,0)" fill="rgb(11,184,78)" d="M 1073.22 473.193 C 1086.63 471.179 1099.15 480.372 1101.23 493.767 C 1103.32 507.162 1094.2 519.729 1080.82 521.892 C 1067.33 524.071 1054.64 514.861 1052.53 501.36 C 1050.43 487.859 1059.71 475.223 1073.22 473.193 z"/>
<path transform="translate(0,0)" fill="rgb(11,184,78)" d="M 1367.55 1286.97 C 1381.99 1286.18 1403.24 1286.9 1418.3 1286.91 L 1519.51 1286.97 C 1520.14 1300.66 1524.16 1344.06 1513.96 1353.36 C 1586.76 1439.42 1497.06 1527.26 1424.94 1573.2 L 1424.94 1679.68 C 1446.43 1652.18 1467.08 1634.84 1503.29 1630.42 C 1528.57 1627.33 1579.68 1636.56 1541.58 1661.29 C 1506.02 1660.83 1478.03 1662.66 1454.35 1693.09 C 1493.91 1700.15 1577.7 1683.84 1613.95 1694.38 C 1626.49 1698.02 1626.59 1717.14 1614.41 1721.37 C 1603.83 1725.03 1545.16 1722.92 1529.37 1722.92 L 1219.7 1722.92 C 1199.63 1722.87 1161.75 1725.08 1141.73 1720.34 C 1132.77 1718.22 1132.58 1695.78 1146.07 1693.92 C 1178.78 1689.39 1243.57 1698.54 1265.36 1693.09 C 1263.94 1664.35 1265.42 1621.82 1265.36 1592.05 C 1247.98 1581.87 1238.76 1576.94 1224.85 1562.19 C 1232.98 1554.06 1249.2 1541.21 1258.63 1534.68 C 1324.23 1474.66 1367.26 1418.93 1361.13 1321.92 L 1361.13 1318.35 C 1361.45 1305.98 1361.91 1299.74 1361.13 1286.97 L 1367.55 1286.97 z M 1298.09 1607.24 L 1298.09 1693.09 C 1301.82 1695.55 1389.98 1693.59 1391.4 1693.09 L 1391.45 1639.75 C 1391.59 1626.06 1392.31 1612.5 1391.4 1598.86 C 1355.96 1617.25 1337.26 1618.07 1298.09 1607.24 z"/>
<path transform="translate(0,0)" fill="rgb(29,217,87)" d="M 1367.55 1286.97 C 1381.99 1286.18 1403.24 1286.9 1418.3 1286.91 L 1519.51 1286.97 C 1520.14 1300.66 1524.16 1344.06 1513.96 1353.36 L 1513.96 1353.36 C 1513.28 1354.12 1494.86 1418.42 1491.7 1426.91 C 1509.63 1445.73 1485.02 1464.92 1470.62 1452.12 L 1467.53 1452.12 C 1417.17 1501.06 1364.78 1525.86 1293.14 1532.7 C 1285.98 1533.38 1263.54 1536.97 1258.63 1534.68 C 1324.23 1474.66 1367.26 1418.93 1361.13 1321.92 L 1361.13 1318.35 C 1361.45 1305.98 1361.91 1299.74 1361.13 1286.97 L 1367.55 1286.97 z"/>
<path transform="translate(0,0)" fill="rgb(248,251,251)" d="M 1367.55 1286.97 C 1381.99 1286.18 1403.24 1286.9 1418.3 1286.91 L 1519.51 1286.97 C 1520.14 1300.66 1524.16 1344.06 1513.96 1353.36 L 1513.96 1353.36 C 1479.34 1322.75 1405.67 1324.78 1361.13 1321.92 L 1361.13 1318.35 C 1361.45 1305.98 1361.91 1299.74 1361.13 1286.97 L 1367.55 1286.97 z"/>
<path transform="translate(0,0)" fill="rgb(228,229,227)" d="M 1361.13 1286.97 L 1367.55 1286.97 C 1377.59 1288.35 1386.8 1288.51 1396.92 1288.55 C 1370.78 1291.52 1357.77 1284.44 1382.57 1290.95 L 1382.77 1292.11 C 1376.57 1295.22 1370.93 1295.21 1364 1295.92 C 1363.99 1299.3 1365.29 1318.48 1361.13 1318.35 C 1361.45 1305.98 1361.91 1299.74 1361.13 1286.97 z"/>
<path transform="translate(0,0)" fill="rgb(78,241,127)" d="M 1467.53 1452.12 C 1425.72 1424.34 1480.06 1393.84 1491.7 1426.91 C 1487.6 1440.66 1483.37 1444.44 1470.62 1452.12 L 1467.53 1452.12 z"/>
<path transform="translate(0,0)" fill="rgb(78,241,127)" d="M 1413.48 1366.56 C 1423.65 1363.41 1434.48 1368.88 1437.98 1378.93 C 1441.48 1388.98 1436.39 1400 1426.46 1403.84 C 1419.73 1406.44 1412.11 1405.17 1406.6 1400.52 C 1401.08 1395.86 1398.54 1388.57 1399.98 1381.5 C 1401.41 1374.43 1406.59 1368.7 1413.48 1366.56 z"/>
<path transform="translate(0,0)" fill="rgb(10,182,115)" d="M 1265.36 1693.09 C 1265.63 1693.25 1297.79 1693.2 1298.09 1693.09 C 1301.82 1695.55 1389.98 1693.59 1391.4 1693.09 C 1400.15 1695.59 1442.84 1689.4 1454.35 1693.09 C 1493.91 1700.15 1577.7 1683.84 1613.95 1694.38 C 1626.49 1698.02 1626.59 1717.14 1614.41 1721.37 C 1603.83 1725.03 1545.16 1722.92 1529.37 1722.92 L 1219.7 1722.92 C 1199.63 1722.87 1161.75 1725.08 1141.73 1720.34 C 1132.77 1718.22 1132.58 1695.78 1146.07 1693.92 C 1178.78 1689.39 1243.57 1698.54 1265.36 1693.09 z"/>
<path transform="translate(0,0)" fill="rgb(11,184,78)" d="M 572.524 1328.36 C 590.13 1323.82 613.651 1324.61 632.104 1324.62 L 689.903 1324.67 C 693.32 1390.37 729.89 1456.33 774.222 1503.71 C 790.872 1524.05 810.524 1541.15 830.255 1558.42 C 819.562 1570.01 799.403 1584.33 783.865 1588.68 C 783.157 1598.53 783.773 1613.45 783.791 1623.69 L 783.865 1693.09 C 801.66 1693.57 892.354 1690.25 901.115 1695.3 C 913.377 1702.37 909.791 1720.24 896.222 1722.41 C 881.952 1724.69 864.571 1722.98 850.005 1722.98 L 536.219 1722.9 C 505.195 1722.9 474.142 1722.67 443.137 1723.24 C 424.466 1723.64 423.174 1696.31 443.3 1694.39 C 462.908 1692.52 483.127 1693.05 502.69 1693.04 L 598.752 1693.09 C 590.232 1686.28 574.971 1668.53 565.5 1659.35 C 552.347 1659.44 513.313 1661.85 507.825 1654.55 C 481.28 1619.24 573.781 1629.53 577.351 1631.53 C 593.408 1640.49 609.004 1659.35 621.398 1671.84 L 621.5 1617.06 C 621.607 1606.57 622.234 1591.12 621.398 1581.12 C 606.536 1571.56 590.553 1559.37 578.966 1546.04 C 524.347 1507.25 483.295 1412.49 535.815 1353.36 C 544.92 1342.58 559.704 1333.9 572.524 1328.36 z M 651.07 1693.09 C 662.349 1693.09 748.77 1694.65 751.861 1692.44 L 752.046 1690.25 C 752.084 1666.98 753.33 1629.15 752.046 1607.24 C 704.81 1614.38 693.598 1611.68 651.07 1598.86 L 651.07 1693.09 z"/>
<path transform="translate(0,0)" fill="rgb(29,217,87)" d="M 572.524 1328.36 C 590.13 1323.82 613.651 1324.61 632.104 1324.62 L 689.903 1324.67 C 693.32 1390.37 729.89 1456.33 774.222 1503.71 L 772.57 1504.3 C 716.883 1524.67 705.586 1541.66 634.536 1545.62 C 624.944 1546.16 582.928 1544.58 578.966 1546.04 C 524.347 1507.25 483.295 1412.49 535.815 1353.36 C 544.92 1342.58 559.704 1333.9 572.524 1328.36 z"/>
<path transform="translate(0,0)" fill="rgb(78,241,127)" d="M 535.815 1353.36 C 544.92 1342.58 559.704 1333.9 572.524 1328.36 C 580.727 1343.3 583.702 1342.4 590.578 1360.69 C 575.252 1398.47 546.764 1383.42 535.815 1353.36 z"/>
<path transform="translate(0,0)" fill="rgb(78,241,127)" d="M 645.115 1367.05 C 670.243 1367.75 679.307 1398.58 654.753 1403.09 C 645.743 1402.76 638.852 1400.61 630.415 1397.86 C 624.786 1381.96 631.709 1374.39 645.115 1367.05 z"/>
<path transform="translate(0,0)" fill="rgb(78,241,127)" d="M 565.5 1424.17 C 584.007 1421.69 582.743 1437.3 572.524 1447.61 C 560.092 1449.28 547.012 1431.38 565.5 1424.17 z"/>
<path transform="translate(0,0)" fill="url(#Gradient1)" d="M 645.115 488.316 C 642.267 519.21 667.328 562.668 689.903 582.93 C 617.338 676.637 729.094 763.963 806.252 804.422 C 801.884 812.392 787.609 831.58 780.804 838.05 C 749.674 847.435 721.159 894.439 715.416 924.918 C 712.805 933.521 710.314 941.789 708.022 950.5 L 529.999 950.5 C 525.136 950.019 515.619 950.414 510.415 950.5 C 477.854 923.987 446.677 886.749 412.669 858.695 C 420.037 853.525 425.879 846.468 429.582 838.264 C 448.528 855.852 509.97 925.49 529.999 924.918 C 528.585 914.522 529.844 897.824 529.919 886.611 L 530.02 547.584 C 529.912 455.829 631.299 501.607 645.115 488.316 z"/>
<path transform="translate(0,0)" fill="rgb(39,136,236)" d="M 429.582 838.264 C 448.528 855.852 509.97 925.49 529.999 924.918 C 591.285 924.918 654.368 924.02 715.416 924.918 C 712.805 933.521 710.314 941.789 708.022 950.5 L 529.999 950.5 C 525.136 950.019 515.619 950.414 510.415 950.5 C 477.854 923.987 446.677 886.749 412.669 858.695 C 420.037 853.525 425.879 846.468 429.582 838.264 z"/>
<path transform="translate(0,0)" fill="rgb(157,215,247)" d="M 1617.81 837.759 C 1622.38 845.365 1628.78 851.701 1636.44 856.183 C 1622.97 869.551 1607.52 881.454 1593.67 894.628 L 1558.41 928.528 C 1550.92 935.851 1540.89 948.327 1531.1 950.5 C 1527.85 950.828 1523.09 950.641 1521.3 952.506 C 1523.88 983.842 1523.01 1012.23 1522.93 1043.69 C 1461.19 1043.7 1396.7 1042.68 1335.28 1043.69 C 1341.74 1005.49 1341.55 988.303 1342.03 950.5 C 1339.85 941.889 1337.73 933.465 1335.28 924.918 C 1338.94 923.553 1505.13 924.929 1523.93 924.918 C 1545.44 912.007 1592.36 858.209 1617.81 837.759 z"/>
<path transform="translate(0,0)" fill="rgb(39,136,236)" d="M 1617.81 837.759 C 1622.38 845.365 1628.78 851.701 1636.44 856.183 C 1622.97 869.551 1607.52 881.454 1593.67 894.628 L 1558.41 928.528 C 1550.92 935.851 1540.89 948.327 1531.1 950.5 C 1518.45 949.399 1484.43 950.44 1470.35 950.454 L 1342.03 950.5 C 1339.85 941.889 1337.73 933.465 1335.28 924.918 C 1338.94 923.553 1505.13 924.929 1523.93 924.918 C 1545.44 912.007 1592.36 858.209 1617.81 837.759 z"/>
<path transform="translate(0,0)" fill="rgb(157,215,247)" d="M 1587.44 1043.69 C 1613.67 1026.83 1654.87 978.968 1681.75 956.502 C 1683.64 964.852 1687.55 972.612 1693.13 979.103 C 1669.1 1003.63 1625.58 1049.47 1598.96 1068.92 C 1576.42 1068.63 1553.66 1068.85 1531.1 1068.92 C 1515.65 1071.04 1522.9 1138.87 1522.93 1156.08 L 1361.13 1156.08 L 1361.13 1071 C 1350.86 1070.2 1340.47 1069.59 1330.17 1068.92 L 1335.28 1066.38 C 1334.35 1058.31 1333.69 1051.65 1335.28 1043.69 C 1396.7 1042.68 1461.19 1043.7 1522.93 1043.69 L 1587.44 1043.69 z"/>
<path transform="translate(0,0)" fill="rgb(39,136,236)" d="M 1587.44 1043.69 C 1613.67 1026.83 1654.87 978.968 1681.75 956.502 C 1683.64 964.852 1687.55 972.612 1693.13 979.103 C 1669.1 1003.63 1625.58 1049.47 1598.96 1068.92 C 1576.42 1068.63 1553.66 1068.85 1531.1 1068.92 C 1519.72 1068.03 1494.89 1068.87 1482.67 1068.89 L 1382.73 1068.93 C 1371.61 1068.9 1342.11 1065.63 1335.28 1066.38 C 1334.35 1058.31 1333.69 1051.65 1335.28 1043.69 C 1396.7 1042.68 1461.19 1043.7 1522.93 1043.69 L 1587.44 1043.69 z"/>
<path transform="translate(0,0)" fill="rgb(251,184,66)" d="M 1522.93 1156.08 C 1538.6 1156.11 1679.72 1155.69 1682.4 1156.85 C 1680.74 1164.09 1680.7 1171.61 1682.27 1178.88 C 1629.63 1180.02 1576 1179.78 1523.26 1179.96 L 1522.93 1180.57 C 1522.99 1203.61 1524.15 1236.87 1522.93 1259.18 L 1361.13 1259.18 C 1360.79 1233.24 1361.12 1206.57 1361.13 1180.57 C 1360.66 1172.92 1361.02 1163.85 1361.13 1156.08 L 1522.93 1156.08 z"/>
<path transform="translate(0,0)" fill="rgb(39,136,236)" d="M 1522.93 1156.08 C 1538.6 1156.11 1679.72 1155.69 1682.4 1156.85 C 1680.74 1164.09 1680.7 1171.61 1682.27 1178.88 C 1629.63 1180.02 1576 1179.78 1523.26 1179.96 L 1522.93 1180.57 C 1470.62 1181.28 1413.43 1181.16 1361.13 1180.57 C 1360.66 1172.92 1361.02 1163.85 1361.13 1156.08 L 1522.93 1156.08 z"/>
<path transform="translate(0,0)" fill="rgb(251,184,66)" d="M 1617.81 837.759 C 1604.08 814.894 1609.51 785.385 1630.49 768.909 C 1651.46 752.433 1681.42 754.142 1700.38 772.896 C 1719.34 791.65 1721.39 821.586 1705.15 842.741 C 1688.9 863.896 1659.46 869.658 1636.44 856.183 C 1628.78 851.701 1622.38 845.365 1617.81 837.759 z"/>
<path transform="translate(0,0)" fill="rgb(250,233,95)" d="M 1650.55 777.797 C 1663.74 773.942 1677.55 781.512 1681.4 794.702 C 1685.25 807.892 1677.67 821.704 1664.48 825.545 C 1651.3 829.384 1637.5 821.814 1633.65 808.633 C 1629.81 795.452 1637.37 781.649 1650.55 777.797 z"/>
<path transform="translate(0,0)" fill="rgb(251,184,66)" d="M 1681.75 956.502 C 1675.92 930.7 1690.25 904.602 1715.16 895.675 C 1740.06 886.747 1767.71 897.796 1779.6 921.425 C 1791.49 945.054 1783.89 973.842 1761.88 988.521 C 1739.87 1003.2 1710.38 999.159 1693.13 979.103 C 1687.55 972.612 1683.64 964.852 1681.75 956.502 z"/>
<path transform="translate(0,0)" fill="rgb(250,233,95)" d="M 1726.48 912.029 C 1759.57 909.81 1765.36 948.704 1735.85 961.18 L 1726.48 961.18 C 1702.23 950.189 1700.67 921.617 1726.48 912.029 z"/>
<path transform="translate(0,0)" fill="rgb(251,184,66)" d="M 359.853 982.045 C 342.324 1001.28 313.189 1004.38 292.003 989.27 C 270.817 974.16 264.261 945.603 276.736 922.767 C 289.212 899.93 316.783 890.015 340.945 899.677 C 365.106 909.339 378.239 935.531 371.527 960.673 C 369.404 968.629 365.4 975.959 359.853 982.045 z"/>
<path transform="translate(0,0)" fill="rgb(250,233,95)" d="M 312.156 915.067 C 343.047 913.01 353.051 951.259 323.951 961.18 C 290.203 960.516 282.014 927.506 312.156 915.067 z"/>
<path transform="translate(0,0)" fill="rgb(251,184,66)" d="M 1639.24 1337.13 C 1659.83 1320.59 1689.6 1322.38 1708.06 1341.25 C 1726.53 1360.13 1727.65 1389.93 1710.67 1410.15 C 1693.69 1430.37 1664.13 1434.4 1642.36 1419.47 C 1620.58 1404.54 1613.68 1375.52 1626.42 1352.39 C 1629.65 1346.51 1634.01 1341.33 1639.24 1337.13 z"/>
<path transform="translate(0,0)" fill="rgb(250,233,95)" d="M 1664.1 1344.7 C 1672.63 1343.07 1681.38 1346.15 1687 1352.78 C 1692.62 1359.4 1694.24 1368.53 1691.25 1376.69 C 1688.25 1384.84 1681.1 1390.75 1672.53 1392.16 C 1665.15 1393.37 1657.62 1391.09 1652.16 1385.98 C 1646.69 1380.86 1643.91 1373.5 1644.63 1366.05 C 1645.66 1355.4 1653.59 1346.71 1664.1 1344.7 z"/>
<path transform="translate(0,0)" fill="rgb(251,184,66)" d="M 425.9 1348.12 C 438.944 1370.21 433.443 1398.56 413.085 1414.17 C 392.727 1429.78 363.919 1427.74 345.967 1409.41 C 328.016 1391.08 326.572 1362.24 342.603 1342.21 C 358.634 1322.18 387.094 1317.27 408.909 1330.77 C 415.894 1335.09 421.724 1341.05 425.9 1348.12 z"/>
<path transform="translate(0,0)" fill="rgb(250,233,95)" d="M 378.051 1341.6 C 390.957 1340.64 402.259 1350.18 403.467 1363.07 C 404.675 1375.95 395.343 1387.43 382.482 1388.88 C 373.946 1389.84 365.556 1386.12 360.542 1379.14 C 355.528 1372.17 354.671 1363.03 358.302 1355.25 C 361.933 1347.46 369.485 1342.24 378.051 1341.6 z"/>
<path transform="translate(0,0)" fill="rgb(252,163,42)" d="M 365.876 1180.28 C 359.866 1205.15 336.264 1221.65 310.841 1218.74 C 285.418 1215.84 266.143 1194.45 265.895 1168.86 C 265.647 1143.27 284.504 1121.51 309.866 1118.12 C 335.228 1114.72 359.145 1130.76 365.636 1155.51 C 367.763 1163.62 367.845 1172.13 365.876 1180.28 z"/>
<path transform="translate(0,0)" fill="rgb(247,215,59)" d="M 311.222 1136.72 C 323.936 1135.23 335.439 1144.36 336.889 1157.07 C 338.339 1169.79 329.184 1181.27 316.462 1182.68 C 310.058 1183.39 303.648 1181.4 298.775 1177.19 C 293.902 1172.97 291.009 1166.92 290.791 1160.48 C 290.383 1148.45 299.268 1138.12 311.222 1136.72 z"/>
<path transform="translate(0,0)" fill="rgb(252,163,42)" d="M 1682.4 1156.85 C 1688.17 1131.7 1711.94 1114.92 1737.56 1117.9 C 1763.19 1120.88 1782.47 1142.66 1782.32 1168.46 C 1782.16 1194.26 1762.62 1215.81 1736.96 1218.48 C 1711.3 1221.15 1687.74 1204.09 1682.27 1178.88 C 1680.7 1171.61 1680.74 1164.09 1682.4 1156.85 z"/>
<path transform="translate(0,0)" fill="rgb(247,215,59)" d="M 1722.24 1136.16 C 1752.47 1134.21 1763.41 1163.59 1735.85 1180.57 C 1706.48 1185.25 1693.34 1151.65 1722.24 1136.16 z"/>
<path transform="translate(0,0)" fill="rgb(39,136,236)" d="M 1361.13 1259.18 L 1522.93 1259.18 C 1537.41 1260.27 1549.13 1259.8 1563.64 1259.18 L 1614.7 1310.6 C 1620.24 1316.24 1635.63 1331.23 1639.24 1337.13 C 1634.01 1341.33 1629.65 1346.51 1626.42 1352.39 C 1612.66 1345.71 1572.07 1299.18 1556.27 1286.97 L 1519.51 1286.97 L 1418.3 1286.91 C 1403.24 1286.9 1381.99 1286.18 1367.55 1286.97 L 1361.13 1286.97 C 1361.51 1277.15 1361.39 1268.95 1361.13 1259.18 z"/>
<path transform="translate(0,0)" fill="rgb(251,184,66)" d="M 412.669 858.695 C 392.104 873.124 364.037 870.117 346.994 851.66 C 329.951 833.203 329.188 804.986 345.208 785.634 C 361.227 766.282 389.091 761.763 410.406 775.058 C 431.721 788.354 439.916 815.366 429.582 838.264 C 425.879 846.468 420.037 853.525 412.669 858.695 z"/>
<path transform="translate(0,0)" fill="rgb(250,233,95)" d="M 379.241 782.715 C 386.286 781.902 393.329 784.251 398.476 789.13 C 403.623 794.01 406.344 800.918 405.908 807.996 C 405.188 819.678 396.135 829.131 384.495 830.356 C 371.379 831.735 359.613 822.258 358.168 809.149 C 356.722 796.04 366.14 784.227 379.241 782.715 z"/>
</svg>